<svg xmlns="http://www.w3.org/2000/svg" version="1.1" width="80px" height="80px" style="shape-rendering:geometricPrecision; text-rendering:geometricPrecision; image-rendering:optimizeQuality; fill-rule:evenodd; clip-rule:evenodd" xmlns:xlink="http://www.w3.org/1999/xlink" viewBox="0 0 80 80"><g><path style="opacity:0.999" fill="#4f54d7" d="M36.028 -0.028h1.5a2440.1 2440.1 0 0 0 11.556 16.222h-2.056L35.472 0.028q0.295 0.026 0.556 -0.056"/></g><g><path style="opacity:1" fill="#4c59d8" d="M37.528 -0.028h1.444l11.556 16.222h-1.444A2440.1 2440.1 0 0 1 37.528 -0.028"/></g><g><path style="opacity:1" fill="#495dda" d="M38.972 -0.028h0.722Q45.473 8.086 51.25 16.194h-0.722z"/></g><g><path style="opacity:1" fill="#4761db" d="M39.694 -0.028h1.444a2440.9 2440.9 0 0 1 11.556 16.222H51.25A128493.9 128493.9 0 0 1 39.694 -0.028"/></g><g><path style="opacity:0.999" fill="#4564dc" d="M41.139 -0.028h0.556a8364.6 8364.6 0 0 0 11.556 16.194q-0.276 0.042 -0.556 0.028A2440.9 2440.9 0 0 0 41.139 -0.028"/></g><g><path style="opacity:0.998" fill="#4568dc" d="M41.694 -0.028h1.5v0.056A2771.6 2771.6 0 0 0 54.972 16.5q-0.019 0.033 -0.056 0.028l-1.111 -0.25q-5.806 -0.042 -11.611 -0.028 0.763 -0.083 1.556 -0.056h8.944q0.279 0.014 0.556 -0.028A8364.6 8364.6 0 0 1 41.694 -0.028"/></g><g><path style="opacity:0.999" fill="#534fd5" d="m35.472 0.028 11.556 16.167H45.25L33.75 0.083a48.2 48.2 0 0 1 1.722 -0.056"/></g><g><path style="opacity:0.999" fill="#406cdf" d="M43.194 0.028H44.25a140390.6 140390.6 0 0 1 12.5 17.556 9.03 9.03 0 0 0 -1.833 -1.056q0.037 0.005 0.056 -0.028A2771.6 2771.6 0 0 1 43.194 0.028"/></g><g><path style="opacity:0.999" fill="#3d6fdf" d="M44.25 0.028a2.74 2.74 0 0 1 0.611 0.056 33166.6 33166.6 0 0 0 34.167 47.722q-0.02 0.362 -0.056 0.722a17285.8 17285.8 0 0 1 -20.528 -28.611q-0.039 0.05 -0.028 0.111 -0.541 -1.412 -1.667 -2.444a140390.6 140390.6 0 0 0 -12.5 -17.556"/></g><g><path style="opacity:0.999" fill="#3b73e1" d="M44.861 0.083q0.834 0.015 1.667 0.056a19940.4 19940.4 0 0 0 32.667 45.667 21.9 21.9 0 0 1 -0.167 2A33166.6 33166.6 0 0 1 44.861 0.083"/></g><g><path style="opacity:0.998" fill="#564ad3" d="m33.75 0.083 11.5 16.111h-1.5a116880.7 116880.7 0 0 0 -11.389 -16A18.2 18.2 0 0 1 33.75 0.083"/></g><g><path style="opacity:0.999" fill="#3976e3" d="M46.528 0.139q0.122 -0.006 0.222 0.056a19954.8 19954.8 0 0 0 32.5 45.389 0.385 0.385 0 0 0 -0.056 0.222A19940.4 19940.4 0 0 1 46.528 0.139"/></g><g><path style="opacity:0.999" fill="#5846d2" d="M32.361 0.194q5.697 8.002 11.389 16 -0.793 -0.027 -1.556 0.056h-0.167A3813 3813 0 0 1 30.639 0.306a17.5 17.5 0 0 1 1.722 -0.111"/></g><g><path style="opacity:0.999" fill="#3679e3" d="M46.75 0.194q0.711 -0.003 1.389 0.111a18335.7 18335.7 0 0 0 31.167 43.5 125.5 125.5 0 0 1 -0.056 1.778 19954.8 19954.8 0 0 1 -32.5 -45.389"/></g><g><path style="opacity:0.999" fill="#5b42d0" d="M30.639 0.306A3813 3813 0 0 0 42.028 16.25a7.37 7.37 0 0 0 -1.833 0.5A3970.4 3970.4 0 0 1 28.583 0.472a192.3 192.3 0 0 0 2.056 -0.167"/></g><g><path style="opacity:0.999" fill="#337fe5" d="M48.139 0.306q0.673 0.001 1.333 0.111a25033.8 25033.8 0 0 0 29.889 41.722 14.1 14.1 0 0 1 -0.056 1.667 18335.7 18335.7 0 0 1 -31.167 -43.5"/></g><g><path style="opacity:0.998" fill="#3082e6" d="M49.472 0.417q0.24 -0.026 0.444 0.056a16423.2 16423.2 0 0 0 29.5 41.167v0.333c-0.05 0.039 -0.069 0.095 -0.056 0.167A25033.8 25033.8 0 0 1 49.472 0.417"/></g><g><path style="opacity:0.998" fill="#2f84e7" d="M49.917 0.472a2.2 2.2 0 0 1 0.611 0.056 8123.4 8123.4 0 0 0 28.889 40.389v0.722a16423.2 16423.2 0 0 1 -29.5 -41.167"/></g><g><path style="opacity:0.998" fill="#2d87e8" d="M50.528 0.528q0.502 0.042 1 0.111a14540.2 14540.2 0 0 0 27.889 39v1.278A8127.1 8127.1 0 0 1 50.528 0.528"/></g><g><path style="opacity:0.999" fill="#5f3ccf" d="M28.583 0.472A3970.4 3970.4 0 0 0 40.194 16.75a10.3 10.3 0 0 0 -1.778 1.333L26.028 0.861a59.7 59.7 0 0 1 2.556 -0.389"/></g><g><path style="opacity:0.998" fill="#2c8ae9" d="M51.528 0.639q0.149 -0.011 0.278 0.056a690063.8 690063.8 0 0 0 27.611 38.556v0.389a14540.2 14540.2 0 0 1 -27.889 -39"/></g><g><path style="opacity:0.998" fill="#298dea" d="M51.806 0.694q0.642 0.06 1.278 0.167a20309.8 20309.8 0 0 0 26.333 36.833V39.25A654960.2 654960.2 0 0 1 51.806 0.694"/></g><g><path style="opacity:0.999" fill="#6139cd" d="m26.028 0.861 12.389 17.222a365.9 365.9 0 0 0 -0.722 1 0.96 0.96 0 0 0 -0.194 -0.389A5696.1 5696.1 0 0 1 24.861 1.028a7.6 7.6 0 0 1 1.167 -0.167"/></g><g><path style="opacity:0.998" fill="#2691eb" d="M53.083 0.861a31.3 31.3 0 0 0 1.056 0.167 6198.6 6198.6 0 0 0 25.222 35.278c-0.018 0.233 0.001 0.456 0.056 0.667v0.722A20309.8 20309.8 0 0 1 53.083 0.861"/></g><g><path style="opacity:0.999" fill="#6237cd" d="M24.861 1.028A5696.1 5696.1 0 0 0 37.5 18.695a0.96 0.96 0 0 1 0.194 0.389 13.6 13.6 0 0 0 -0.5 1.056A3306.9 3306.9 0 0 0 23.75 1.25a8.6 8.6 0 0 1 1.111 -0.222"/></g><g><path style="opacity:0.998" fill="#2494ec" d="m54.139 1.028 0.444 0.111A17220.2 17220.2 0 0 0 79.361 35.75v0.556A6198.6 6198.6 0 0 1 54.139 1.028"/></g><g><path style="opacity:0.998" fill="#2396ed" d="M54.583 1.139q0.287 0.024 0.556 0.111a8383.1 8383.1 0 0 0 24.167 33.778 2.9 2.9 0 0 1 0.056 0.722A17220.2 17220.2 0 0 1 54.583 1.139"/></g><g><path style="opacity:0.999" fill="#6633cc" d="M23.75 1.25a3306.9 3306.9 0 0 1 13.444 18.889q-1.023 3.632 1.667 6.25 1.407 1.233 3.278 1.417 0.317 0.082 0.667 0.056l4.833 6.778a130.7 130.7 0 0 0 -5.389 0.056q-3.914 0.511 -5.139 4.278 -0.783 3.652 2.028 6.083 1.326 1.023 3 1.222 5.694 0.056 11.389 0 1.057 -0.119 2 -0.583l16.167 22.556c-1.499 1.879 -3.241 3.499 -5.222 4.861q-5.013 3.302 -10.889 4.667a59.9 59.9 0 0 1 -3.722 0.75 3742.7 3742.7 0 0 0 -10.889 -15.278 8.7 8.7 0 0 0 -1.389 -0.056H28.861q-1.376 0.028 -2.722 -0.056 13.75 0.014 27.5 -0.028 3.691 -0.552 4.917 -4.083c0.69 -2.894 -0.208 -5.145 -2.694 -6.75q-1.098 -0.657 -2.389 -0.722 -10.611 -0.042 -21.222 -0.028 0.014 -15.111 -0.028 -30.222 -0.686 -3.881 -4.472 -4.972 -3.944 -0.723 -6.25 2.528 -0.725 1.148 -0.889 2.5 -0.042 6.667 -0.028 13.333A4469.8 4469.8 0 0 1 5.028 13.028q2.592 -4.55 7 -7.417 5.422 -3.322 11.722 -4.361"/></g><g><path style="opacity:0.998" fill="#219aee" d="M55.139 1.25q0.66 0.087 1.278 0.278A9758.2 9758.2 0 0 0 79.25 33.472c0.041 0.517 0.059 1.036 0.056 1.556A8383.1 8383.1 0 0 1 55.139 1.25"/></g><g><path style="opacity:0.998" fill="#1d9ff0" d="M56.417 1.528a14.6 14.6 0 0 1 1.5 0.333 6603 6603 0 0 0 21.222 29.667c0.037 0.648 0.074 1.296 0.111 1.944A9758.2 9758.2 0 0 1 56.417 1.528"/></g><g><path style="opacity:0.998" fill="#1aa4f1" d="M57.917 1.861a26.1 26.1 0 0 1 1.278 0.389 5740.1 5740.1 0 0 0 19.778 27.667q0.088 0.805 0.167 1.611A6603 6603 0 0 1 57.917 1.861"/></g><g><path style="opacity:0.999" fill="#17a8f3" d="M59.194 2.25q0.296 0.053 0.556 0.167a5270 5270 0 0 0 19.167 26.778q0.036 0.36 0.056 0.722A5740.1 5740.1 0 0 1 59.195 2.25"/></g><g><path style="opacity:0.997" fill="#15abf4" d="M59.75 2.417a8.3 8.3 0 0 1 1.444 0.5 5733.8 5733.8 0 0 0 17.5 24.5c0.074 0.593 0.148 1.185 0.222 1.778A5270 5270 0 0 1 59.75 2.417"/></g><g><path style="opacity:0.997" fill="#13aff5" d="M61.194 2.917q0.254 0.019 0.444 0.167a5378.9 5378.9 0 0 0 16.944 23.722 6 6 0 0 1 0.111 0.611 5733.8 5733.8 0 0 1 -17.5 -24.5"/></g><g><path style="opacity:0.996" fill="#10b2f6" d="M61.639 3.083q0.789 0.226 1.5 0.611A3345.1 3345.1 0 0 0 78.25 24.806a18.8 18.8 0 0 1 0.333 2A5378.9 5378.9 0 0 1 61.639 3.083"/></g><g><path style="opacity:0.996" fill="#0db8f8" d="M63.139 3.694a9.74 9.74 0 0 1 1.778 0.833A3116.6 3116.6 0 0 0 77.75 22.472q0.333 1.139 0.5 2.333A3345.1 3345.1 0 0 1 63.139 3.694"/></g><g><path style="opacity:0.993" fill="#09befa" d="M64.917 4.528a12 12 0 0 1 1.889 1.111q5.14 7.17 10.278 14.333a17.7 17.7 0 0 1 0.667 2.5A3116.6 3116.6 0 0 1 64.917 4.528"/></g><g><path style="opacity:0.986" fill="#05c4fc" d="M66.806 5.639a12.74 12.74 0 0 1 2.556 1.889 1196.2 1196.2 0 0 0 6.5 9.056 23.06 23.06 0 0 1 1.222 3.389A93758.1 93758.1 0 0 1 66.806 5.639"/></g><g><path style="opacity:0.941" fill="#01c9fe" d="M69.361 7.528q4.376 3.711 6.5 9.056a1196.2 1196.2 0 0 1 -6.5 -9.056"/></g><g><path style="opacity:0.999" fill="#6931cc" d="M5.028 13.028a4469.8 4469.8 0 0 0 15.556 21.667v1.944a7633.8 7633.8 0 0 1 -16.167 -22.5q0.239 -0.598 0.611 -1.111"/></g><g><path style="opacity:0.999" fill="#6d2fcb" d="M4.417 14.139a7633.8 7633.8 0 0 0 16.167 22.5V42.75A9295.7 9295.7 0 0 1 2.75 17.917a26.74 26.74 0 0 1 1.667 -3.778"/></g><g><path style="opacity:1" fill="#fefefe" d="M26.139 63.139h-0.333q-1.94 -0.262 -3.389 -1.556c-0.516 -0.533 -0.941 -1.126 -1.278 -1.778q-0.774 -1.893 -0.556 -3.944V34.694q-0.014 -6.667 0.028 -13.333 0.164 -1.352 0.889 -2.5 2.306 -3.251 6.25 -2.528 3.786 1.091 4.472 4.972 0.042 15.111 0.028 30.222 10.611 -0.014 21.222 0.028 1.291 0.065 2.389 0.722c2.486 1.605 3.384 3.856 2.694 6.75q-1.226 3.532 -4.917 4.083 -13.75 0.042 -27.5 0.028"/></g><g><path style="opacity:1" fill="#fefefe" d="M42.028 16.25h0.167q5.806 -0.014 11.611 0.028l1.111 0.25a9.03 9.03 0 0 1 1.833 1.056q1.126 1.032 1.667 2.444 0.419 1.07 0.333 2.222a5.07 5.07 0 0 1 -0.222 1.389 2.74 2.74 0 0 1 -0.167 0.5 5.83 5.83 0 0 1 -0.611 1.167q-0.169 0.252 -0.333 0.5 -0.447 0.419 -0.889 0.833a14.1 14.1 0 0 1 -1.444 0.833 6.78 6.78 0 0 1 -1.5 0.333H42.139q-1.871 -0.183 -3.278 -1.417 -2.69 -2.618 -1.667 -6.25a13.6 13.6 0 0 1 0.5 -1.056 365.9 365.9 0 0 1 0.722 -1 10.3 10.3 0 0 1 1.778 -1.333 7.37 7.37 0 0 1 1.833 -0.5"/></g><g><path style="opacity:0.999" fill="#722ccb" d="M2.75 17.917A9295.7 9295.7 0 0 0 20.583 42.75v3.667A10115.3 10115.3 0 0 0 1.972 20.472a33.8 33.8 0 0 1 0.778 -2.556"/></g><g><path style="opacity:0.999" fill="#3f6cdf" d="M78.972 48.528q-0.078 0.64 -0.167 1.278a10871.6 10871.6 0 0 1 -19.972 -27.889q-0.016 0.184 -0.083 0.333 0.086 -1.153 -0.333 -2.222a0.136 0.136 0 0 1 0.028 -0.111 17285.8 17285.8 0 0 0 20.528 28.611"/></g><g><path style="opacity:0.999" fill="#752bcc" d="M1.972 20.472a10115.3 10115.3 0 0 1 18.611 25.944v1.111A10384.5 10384.5 0 0 0 1.75 21.25z"/></g><g><path style="opacity:0.999" fill="#7929cb" d="M1.75 21.25a10384.5 10384.5 0 0 1 18.833 26.278v4.056a11121.1 11121.1 0 0 0 -19.5 -27.167A60.1 60.1 0 0 1 1.75 21.25"/></g><g><path style="opacity:0.999" fill="#4267dd" d="M78.806 49.806c-0.074 0.574 -0.148 1.148 -0.222 1.722A15693.9 15693.9 0 0 1 59.056 24.25a8.9 8.9 0 0 0 -0.528 -0.611A5.07 5.07 0 0 0 58.75 22.25q0.068 -0.149 0.083 -0.333a10871.6 10871.6 0 0 0 19.972 27.889"/></g><g><path style="opacity:0.999" fill="#4564dc" d="M58.528 23.639a8.9 8.9 0 0 1 0.528 0.611 15693.9 15693.9 0 0 0 19.528 27.278 3.5 3.5 0 0 0 -0.111 0.611 15774.5 15774.5 0 0 1 -19.75 -27.611c-0.097 -0.159 -0.217 -0.289 -0.361 -0.389a2.74 2.74 0 0 0 0.167 -0.5"/></g><g><path style="opacity:0.999" fill="#4761db" d="M58.361 24.139c0.144 0.1 0.264 0.23 0.361 0.389a15774.5 15774.5 0 0 0 19.75 27.611q-0.15 0.789 -0.333 1.556A12137.3 12137.3 0 0 0 57.75 25.306a5.83 5.83 0 0 0 0.611 -1.167"/></g><g><path style="opacity:0.999" fill="#7e26cc" d="M1.083 24.417a11121.1 11121.1 0 0 1 19.5 27.167v2.778L0.75 26.695a29 29 0 0 1 0.333 -2.278"/></g><g><path style="opacity:0.999" fill="#495dd9" d="M57.75 25.306a12137.3 12137.3 0 0 1 20.389 28.389q-0.033 0.409 -0.167 0.778a7851.2 7851.2 0 0 1 -20.556 -28.667q0.164 -0.248 0.333 -0.5"/></g><g><path style="opacity:0.999" fill="#4c59d8" d="M57.417 25.806a7851.2 7851.2 0 0 0 20.556 28.667 23.2 23.2 0 0 1 -0.333 1.556c-7.037 -9.796 -14.074 -19.593 -21.111 -29.389q0.442 -0.414 0.889 -0.833"/></g><g><path style="opacity:0.999" fill="#4f54d7" d="M56.528 26.639c7.037 9.796 14.074 19.593 21.111 29.389a64.6 64.6 0 0 1 -0.611 2.056 14094.2 14094.2 0 0 0 -21.944 -30.611 14 14 0 0 0 1.444 -0.833"/></g><g><path style="opacity:0.999" fill="#8224cc" d="m0.75 26.694 19.833 27.667v1.5l-20 -27.889q0.037 -0.656 0.167 -1.278"/></g><g><path style="opacity:0.999" fill="#534fd5" d="M55.083 27.472a14094.2 14094.2 0 0 1 21.944 30.611 15.8 15.8 0 0 1 -0.611 1.722q-11.415 -15.999 -22.833 -32a6.78 6.78 0 0 0 1.5 -0.333"/></g><g><path style="opacity:0.999" fill="#574cd3" d="M42.139 27.806h11.444q11.418 16.002 22.833 32a5.7 5.7 0 0 1 -0.222 0.722 37180.7 37180.7 0 0 0 -23.389 -32.639 4 4 0 0 0 -0.667 -0.028h-9.333q-0.35 0.026 -0.667 -0.056"/></g><g><path style="opacity:1" fill="#6238cd" d="M42.806 27.861h2.611a423.1 423.1 0 0 0 4.778 6.778h-2.556z"/></g><g><path style="opacity:1" fill="#5f3ccf" d="M45.417 27.861h2.778a719.3 719.3 0 0 0 4.778 6.722 34.8 34.8 0 0 1 -2.778 0.056 423.1 423.1 0 0 1 -4.778 -6.778"/></g><g><path style="opacity:1" fill="#5e44cf" d="M48.194 27.861h2.167a26767.7 26767.7 0 0 1 5.222 7.333c-0.007 0.034 -0.026 0.052 -0.056 0.056a9.7 9.7 0 0 1 -0.944 -0.361 6.3 6.3 0 0 1 -0.722 -0.167q-5.806 -0.042 -11.611 -0.028a130.7 130.7 0 0 1 5.389 -0.056h2.556q1.39 0.028 2.778 -0.056a719.3 719.3 0 0 1 -4.778 -6.722"/></g><g><path style="opacity:0.999" fill="#5846d2" d="M50.361 27.861h1.778a523867.9 523867.9 0 0 0 23.778 33.222 13.5 13.5 0 0 1 -0.667 1.556c-5.518 -7.685 -11.037 -15.37 -16.556 -23.056q-0.566 -2.925 -3.167 -4.333c0.03 -0.003 0.049 -0.022 0.056 -0.056a26767.7 26767.7 0 0 0 -5.222 -7.333"/></g><g><path style="opacity:0.999" fill="#5649d3" d="M52.139 27.861a4 4 0 0 1 0.667 0.028 37180.7 37180.7 0 0 1 23.389 32.639 2.62 2.62 0 0 1 -0.278 0.556 520096.1 520096.1 0 0 1 -23.778 -33.222"/></g><g><path style="opacity:0.999" fill="#8622cb" d="m0.583 27.972 20 27.889q-0.218 2.052 0.556 3.944c-0.094 -0.054 -0.177 -0.128 -0.25 -0.222A17328.1 17328.1 0 0 0 0.306 30.806a28.2 28.2 0 0 1 0.278 -2.833"/></g><g><path style="opacity:0.999" fill="#8b20cb" d="M0.306 30.806a17328.1 17328.1 0 0 1 20.583 28.778c0.073 0.094 0.156 0.168 0.25 0.222 0.336 0.652 0.762 1.244 1.278 1.778a0.274 0.274 0 0 0 0.028 0.167q6.265 8.753 12.528 17.5 -0.696 0.006 -1.389 -0.056A10788.7 10788.7 0 0 0 0.139 32.472a94.9 94.9 0 0 1 0.167 -1.667"/></g><g><path style="opacity:0.999" fill="#8e1ecc" d="M0.139 32.472a10788.7 10788.7 0 0 1 33.444 46.722c-0.296 -0.018 -0.593 -0.037 -0.889 -0.056A15305.7 15305.7 0 0 0 0.083 33.583a6.8 6.8 0 0 0 0.056 -1.111"/></g><g><path style="opacity:0.999" fill="#921ccc" d="M0.083 33.583a15305.7 15305.7 0 0 1 32.611 45.556 65 65 0 0 1 -2.278 -0.222A13250.3 13250.3 0 0 0 0.028 36.472q0.007 -1.445 0.056 -2.889"/></g><g><path style="opacity:1" fill="#fefefe" d="M42.25 34.694q5.806 -0.014 11.611 0.028a6.3 6.3 0 0 0 0.722 0.167 9.7 9.7 0 0 0 0.944 0.361q2.601 1.409 3.167 4.333 0.185 1.389 -0.222 2.722a1.82 1.82 0 0 0 -0.222 0.556 7.64 7.64 0 0 1 -1.056 1.611 12.8 12.8 0 0 1 -0.833 0.722 9.6 9.6 0 0 1 -0.833 0.5q-0.943 0.464 -2 0.583 -5.694 0.056 -11.389 0 -1.674 -0.199 -3 -1.222 -2.81 -2.431 -2.028 -6.083 1.224 -3.767 5.139 -4.278"/></g><g><path style="opacity:0.998" fill="#9819cc" d="M0.028 36.472a13250.3 13250.3 0 0 1 30.389 42.444 32.9 32.9 0 0 1 -2.5 -0.333A14837.3 14837.3 0 0 0 -0.028 39.528v-2.944q0.07 -0.028 0.056 -0.111"/></g><g><path style="opacity:0.998" fill="#9f16cc" d="M-0.028 39.528a14837.3 14837.3 0 0 1 27.944 39.056 31.4 31.4 0 0 1 -2.111 -0.333A19313.2 19313.2 0 0 0 0.028 42.195q0.025 -0.186 -0.056 -0.333z"/></g><g><path style="opacity:0.999" fill="#5b42d0" d="M58.694 39.583c5.518 7.685 11.037 15.37 16.556 23.056a12.97 12.97 0 0 1 -0.944 1.778 179133.3 179133.3 0 0 0 -15.833 -22.111q0.407 -1.333 0.222 -2.722"/></g><g><path style="opacity:0.998" fill="#a513cc" d="M0.028 42.194A19313.2 19313.2 0 0 1 25.806 78.25a43.2 43.2 0 0 1 -2.111 -0.444A5420.2 5420.2 0 0 0 0.139 44.861a29.7 29.7 0 0 1 -0.111 -2.667"/></g><g><path style="opacity:0.999" fill="#5e3fcf" d="M58.472 42.306q7.916 11.053 15.833 22.111 -0.076 0.291 -0.278 0.5a2423.8 2423.8 0 0 0 -15.778 -22.056 1.82 1.82 0 0 1 0.222 -0.556"/></g><g><path style="opacity:0.999" fill="#5f3ccf" d="M58.25 42.861a2423.8 2423.8 0 0 1 15.778 22.056 8.56 8.56 0 0 1 -1 1.556A10070.9 10070.9 0 0 1 57.389 44.639a0.82 0.82 0 0 0 -0.194 -0.167 7.64 7.64 0 0 0 1.056 -1.611"/></g><g><path style="opacity:0.999" fill="#6139cd" d="M57.194 44.472a0.82 0.82 0 0 1 0.194 0.167 10070.9 10070.9 0 0 0 15.639 21.833 4.44 4.44 0 0 1 -0.667 0.944 10363.8 10363.8 0 0 1 -15.861 -22.167 0.159 0.159 0 0 0 -0.139 -0.056 12.8 12.8 0 0 0 0.833 -0.722"/></g><g><path style="opacity:0.998" fill="#ab10cc" d="M0.139 44.861a5420.2 5420.2 0 0 1 23.556 32.944 24.5 24.5 0 0 1 -2.222 -0.611 4290.7 4290.7 0 0 0 -21.111 -29.5 26.8 26.8 0 0 1 -0.222 -2.833"/></g><g><path style="opacity:0.999" fill="#6237cd" d="M56.361 45.194a0.158 0.158 0 0 1 0.139 0.056 10389.1 10389.1 0 0 0 15.861 22.167q-0.273 0.467 -0.667 0.833 -8.083 -11.278 -16.167 -22.556a9.6 9.6 0 0 0 0.833 -0.5"/></g><g><path style="opacity:0.998" fill="#b10dcc" d="M0.361 47.694a4290.7 4290.7 0 0 1 21.111 29.5q-1.296 -0.302 -2.5 -0.833a6368.1 6368.1 0 0 0 -18.278 -25.5 41.3 41.3 0 0 1 -0.333 -3.167"/></g><g><path style="opacity:0.996" fill="#b809cc" d="M0.694 50.861a6368.1 6368.1 0 0 1 18.278 25.5 12.33 12.33 0 0 1 -2.278 -0.944 3458.1 3458.1 0 0 0 -15.5 -21.667 58.8 58.8 0 0 1 -0.5 -2.889"/></g><g><path style="opacity:0.995" fill="#bf06cc" d="M1.194 53.75a3458.1 3458.1 0 0 1 15.5 21.667q-1.355 -0.538 -2.556 -1.333a2162.2 2162.2 0 0 0 -12.167 -17 36.3 36.3 0 0 1 -0.778 -3.333"/></g><g><path style="opacity:0.991" fill="#c503cc" d="M1.972 57.083a2162.2 2162.2 0 0 1 12.167 17c-2.967 -1.698 -5.458 -3.939 -7.472 -6.722q-3.268 -4.704 -4.694 -10.278"/></g><g><path style="opacity:0.998" fill="#8622cb" d="M22.417 61.583q1.449 1.294 3.389 1.556c3.852 5.407 7.704 10.815 11.556 16.222a32.5 32.5 0 0 1 -2.389 -0.111q-6.263 -8.748 -12.528 -17.5a0.274 0.274 0 0 1 -0.028 -0.167"/></g><g><path style="opacity:0.998" fill="#7f26cb" d="M25.806 63.139h0.333a33.3 33.3 0 0 0 2.722 0.056c3.87 5.407 7.741 10.815 11.611 16.222h-1.667a9.4 9.4 0 0 0 -1.444 -0.056c-3.852 -5.407 -7.704 -10.815 -11.556 -16.222"/></g><g><path style="opacity:0.999" fill="#7929cb" d="M28.861 63.194h2.944a4006.4 4006.4 0 0 1 11.5 16.167q-1.098 -0.028 -2.167 0.056h-0.667c-3.87 -5.407 -7.741 -10.815 -11.611 -16.222"/></g><g><path style="opacity:0.999" fill="#732ccb" d="M31.806 63.194h3.389q5.669 7.974 11.333 15.944a89.3 89.3 0 0 1 -3.222 0.222 4006.4 4006.4 0 0 0 -11.5 -16.167"/></g><g><path style="opacity:0.999" fill="#6d2fcb" d="M35.194 63.194h4.389a2231.9 2231.9 0 0 0 11.056 15.5 41 41 0 0 1 -4.111 0.444q-5.665 -7.971 -11.333 -15.944"/></g><g><path style="opacity:0.999" fill="#6931cc" d="M39.583 63.194q0.697 -0.028 1.389 0.056a3742.7 3742.7 0 0 1 10.889 15.278 12.2 12.2 0 0 1 -1.222 0.167 2231.9 2231.9 0 0 1 -11.056 -15.5"/></g></svg>